<svg width="73" height="56" viewBox="0 0 73 56" fill="none" xmlns="http://www.w3.org/2000/svg">
<path d="M70.9457 54.3597H5.6499C5.6499 54.3597 7.93175 43.4771 37.2447 43.4771C66.5576 43.477 70.9457 54.3597 70.9457 54.3597Z" stroke="black" stroke-width="2"/>
<path d="M30.2242 43.4772L24.2563 22.063" stroke="black" stroke-width="2"/>
<path d="M1.26184 32.77L0.269717 32.8952C0.328895 33.364 0.708118 33.7274 1.179 33.7665C1.64988 33.8057 2.0839 33.5099 2.21967 33.0573L1.26184 32.77ZM17.5858 28.5573L16.8787 29.2644C17.1459 29.5316 17.5408 29.6254 17.8996 29.5068C18.2583 29.3883 18.5196 29.0776 18.575 28.7039L17.5858 28.5573ZM33.0321 24.6957L32.2286 25.291C32.473 25.621 32.8943 25.768 33.291 25.6617C33.6877 25.5553 33.979 25.2173 34.0257 24.8093L33.0321 24.6957ZM49.3561 19.9565L48.6635 20.6779C48.9734 20.9754 49.4387 21.0418 49.8194 20.8427C50.2001 20.6436 50.4111 20.2237 50.3437 19.7994L49.3561 19.9565ZM36.1916 4.68574L35.6571 5.53093L36.1916 4.68574ZM18.8145 3.106L18.6397 2.12139L18.6323 2.1227L18.6249 2.12413L18.8145 3.106ZM4.24583 13.8132L3.42646 13.2399V13.2399L4.24583 13.8132ZM1.26184 32.77C2.21967 33.0573 2.21955 33.0577 2.21944 33.0581C2.21941 33.0582 2.21931 33.0585 2.21925 33.0587C2.21913 33.0591 2.21904 33.0594 2.21897 33.0596C2.21883 33.0601 2.21878 33.0602 2.21883 33.0601C2.21892 33.0598 2.2194 33.0582 2.22026 33.0555C2.22198 33.0501 2.22524 33.0398 2.23012 33.0251C2.23988 32.9957 2.25605 32.9484 2.27918 32.8853C2.32547 32.7591 2.39934 32.5707 2.50489 32.3372C2.71657 31.869 3.05229 31.2274 3.54317 30.5462C4.52441 29.1844 6.10021 27.696 8.53277 27.0682L8.03302 25.1317C5.02422 25.9081 3.08949 27.7547 1.92055 29.3769C1.33633 30.1877 0.937049 30.9502 0.682494 31.5133C0.554929 31.7954 0.462867 32.0293 0.401516 32.1966C0.370819 32.2803 0.347745 32.3474 0.331705 32.3958C0.323682 32.42 0.317413 32.4396 0.312824 32.4541C0.310529 32.4614 0.308654 32.4674 0.307189 32.4722C0.306456 32.4746 0.305826 32.4766 0.305297 32.4784C0.305033 32.4792 0.304794 32.48 0.30458 32.4807C0.304473 32.4811 0.304331 32.4816 0.304278 32.4817C0.304143 32.4822 0.304014 32.4826 1.26184 32.77ZM8.53277 27.0682C10.9642 26.4408 13.0444 26.9847 14.5421 27.7036C15.2918 28.0634 15.8869 28.4637 16.292 28.7718C16.4939 28.9254 16.6469 29.0549 16.7465 29.143C16.7963 29.187 16.8326 29.2206 16.8548 29.2416C16.8659 29.2521 16.8735 29.2595 16.8775 29.2633C16.8795 29.2653 16.8806 29.2664 16.8808 29.2666C16.8809 29.2667 16.8808 29.2665 16.8804 29.2662C16.8803 29.266 16.88 29.2658 16.8797 29.2655C16.8796 29.2653 16.8793 29.2651 16.8793 29.265C16.879 29.2647 16.8787 29.2644 17.5858 28.5573C18.2929 27.8502 18.2926 27.8499 18.2922 27.8496C18.2921 27.8494 18.2918 27.8491 18.2915 27.8488C18.291 27.8483 18.2904 27.8477 18.2897 27.8471C18.2884 27.8458 18.2869 27.8443 18.2851 27.8425C18.2816 27.839 18.277 27.8346 18.2716 27.8292C18.2606 27.8186 18.2459 27.8044 18.2274 27.787C18.1904 27.7521 18.1384 27.7041 18.072 27.6453C17.9391 27.5277 17.748 27.3665 17.5029 27.18C17.0138 26.808 16.3034 26.3305 15.4076 25.9005C13.6142 25.0397 11.043 24.3549 8.03302 25.1317L8.53277 27.0682ZM17.5858 28.5573C18.575 28.7039 18.5749 28.7044 18.5749 28.7049C18.5748 28.705 18.5748 28.7055 18.5747 28.7058C18.5746 28.7064 18.5746 28.7069 18.5745 28.7073C18.5744 28.7081 18.5743 28.7087 18.5742 28.709C18.5741 28.7096 18.5742 28.7091 18.5745 28.7076C18.575 28.7045 18.5762 28.6971 18.5783 28.6857C18.5826 28.6628 18.5902 28.6238 18.6023 28.5706C18.6264 28.4639 18.668 28.3005 18.7347 28.0946C18.8682 27.682 19.1006 27.1043 19.4906 26.4705C20.2633 25.2149 21.6684 23.7135 24.2298 22.833L23.5797 20.9416C20.5242 21.9919 18.7699 23.8256 17.7873 25.4223C17.2997 26.2146 17.0054 26.9424 16.8319 27.4787C16.7449 27.7473 16.6878 27.9693 16.6516 28.1293C16.6335 28.2094 16.6206 28.2741 16.6118 28.3216C16.6074 28.3454 16.604 28.3648 16.6015 28.3798C16.6003 28.3872 16.5992 28.3936 16.5984 28.3988C16.598 28.4013 16.5977 28.4036 16.5974 28.4057C16.5972 28.4067 16.5971 28.4076 16.5969 28.4084C16.5969 28.4089 16.5968 28.4095 16.5968 28.4097C16.5967 28.4102 16.5966 28.4108 17.5858 28.5573ZM24.2298 22.833C26.6946 21.9858 28.6693 22.5942 30.062 23.426C30.7659 23.8464 31.3168 24.3231 31.6911 24.6948C31.8773 24.8799 32.0174 25.0366 32.1084 25.1436C32.1538 25.197 32.1868 25.2378 32.207 25.2634C32.2171 25.2761 32.224 25.285 32.2276 25.2897C32.2294 25.2921 32.2304 25.2934 32.2305 25.2936C32.2306 25.2937 32.2305 25.2936 32.2302 25.2931C32.23 25.2929 32.2298 25.2926 32.2295 25.2923C32.2294 25.2921 32.2291 25.2918 32.2291 25.2917C32.2288 25.2913 32.2286 25.291 33.0321 24.6957C33.8357 24.1005 33.8354 24.1001 33.8351 24.0997C33.835 24.0996 33.8346 24.0991 33.8344 24.0988C33.8339 24.0981 33.8334 24.0974 33.8328 24.0966C33.8316 24.095 33.8302 24.0932 33.8286 24.091C33.8253 24.0867 33.8212 24.0812 33.8162 24.0747C33.8062 24.0616 33.7926 24.0441 33.7756 24.0226C33.7417 23.9797 33.6937 23.9206 33.6322 23.8482C33.5093 23.7036 33.3312 23.5051 33.1006 23.276C32.6411 22.8195 31.9634 22.232 31.0875 21.7089C29.3208 20.6538 26.7318 19.8581 23.5797 20.9416L24.2298 22.833ZM33.0321 24.6957C34.0257 24.8093 34.0256 24.8097 34.0256 24.8101C34.0256 24.8102 34.0255 24.8105 34.0255 24.8107C34.0254 24.8111 34.0254 24.8114 34.0254 24.8116C34.0253 24.812 34.0253 24.812 34.0254 24.8117C34.0254 24.8111 34.0257 24.809 34.0261 24.8056C34.027 24.7987 34.0287 24.7863 34.0312 24.7686C34.0363 24.7333 34.0449 24.6772 34.058 24.603C34.0843 24.4544 34.1284 24.2341 34.1981 23.9627C34.3382 23.4175 34.5781 22.6789 34.9751 21.9048C35.7668 20.3608 37.1493 18.7293 39.5936 18.1183L39.1085 16.178C35.9359 16.9711 34.1589 19.1133 33.1954 20.9922C32.7148 21.9294 32.4281 22.8145 32.261 23.4651C32.1772 23.7915 32.1226 24.0622 32.0885 24.255C32.0715 24.3515 32.0595 24.4288 32.0515 24.4842C32.0476 24.5119 32.0446 24.5341 32.0425 24.5506C32.0414 24.5588 32.0406 24.5656 32.0399 24.5709C32.0396 24.5735 32.0393 24.5758 32.0391 24.5777C32.039 24.5786 32.0389 24.5795 32.0388 24.5802C32.0388 24.5806 32.0387 24.5811 32.0387 24.5813C32.0386 24.5818 32.0386 24.5822 33.0321 24.6957ZM39.5936 18.1183C42.0997 17.4918 44.3533 18.1108 46.0215 18.9245C46.853 19.3302 47.5235 19.7772 47.9841 20.1213C48.2137 20.2929 48.3895 20.4377 48.5051 20.537C48.5629 20.5866 48.6055 20.6247 48.6322 20.649C48.6455 20.6611 48.6549 20.6698 48.6601 20.6748C48.6628 20.6772 48.6644 20.6787 48.6649 20.6793C48.6652 20.6795 48.6653 20.6796 48.665 20.6793C48.6649 20.6792 48.6647 20.6791 48.6645 20.6788C48.6644 20.6787 48.6641 20.6785 48.6641 20.6784C48.6638 20.6782 48.6635 20.6779 49.3561 19.9565C50.0486 19.2351 50.0483 19.2349 50.048 19.2345C50.0478 19.2344 50.0475 19.2341 50.0473 19.2339C50.0467 19.2334 50.0462 19.2328 50.0455 19.2322C50.0442 19.2309 50.0426 19.2294 50.0408 19.2277C50.0371 19.2242 50.0323 19.2197 50.0265 19.2142C50.0148 19.2033 49.9988 19.1885 49.9786 19.1701C49.9383 19.1334 49.8812 19.0824 49.808 19.0196C49.6617 18.894 49.4507 18.7206 49.1812 18.5192C48.6435 18.1174 47.8659 17.599 46.8983 17.127C44.9682 16.1855 42.2193 15.4003 39.1085 16.178L39.5936 18.1183ZM49.3561 19.9565C50.3437 19.7994 50.3435 19.7987 50.3434 19.798C50.3434 19.7978 50.3433 19.797 50.3432 19.7965C50.343 19.7953 50.3428 19.7941 50.3426 19.7928C50.3421 19.7901 50.3416 19.7869 50.341 19.7833C50.3397 19.776 50.3382 19.7669 50.3362 19.7559C50.3322 19.7339 50.3266 19.7046 50.3192 19.6681C50.3043 19.5952 50.2819 19.4937 50.2497 19.3657C50.1852 19.1096 50.0812 18.7473 49.919 18.2946C49.5944 17.3887 49.0371 16.1222 48.0974 14.6209C46.2155 11.6144 42.8153 7.6911 36.7261 3.84055L35.6571 5.53093C41.5038 9.2281 44.6858 12.9402 46.4021 15.6821C47.2616 17.0551 47.7574 18.1911 48.0362 18.9692C48.1757 19.3584 48.2609 19.6584 48.3103 19.8542C48.3349 19.9521 48.3506 20.0239 48.3595 20.0678C48.364 20.0897 48.3668 20.1047 48.3682 20.1124C48.3689 20.1163 48.3692 20.1183 48.3693 20.1185C48.3693 20.1186 48.3692 20.1183 48.3691 20.1175C48.369 20.1171 48.369 20.1165 48.3689 20.1159C48.3688 20.1156 48.3687 20.115 48.3687 20.1149C48.3686 20.1143 48.3685 20.1136 49.3561 19.9565ZM36.7261 3.84055C33.5784 1.85011 28.9701 1.46967 25.3267 1.53029C23.4734 1.56112 21.8073 1.7082 20.6048 1.84732C20.0029 1.91695 19.5155 1.9848 19.1768 2.03554C19.0074 2.06091 18.8751 2.08203 18.7842 2.09697C18.7387 2.10444 18.7036 2.11037 18.6794 2.11452C18.6672 2.11659 18.6578 2.11822 18.6512 2.11938C18.6479 2.11995 18.6453 2.12041 18.6433 2.12075C18.6424 2.12092 18.6416 2.12106 18.641 2.12116C18.6407 2.12122 18.6404 2.12127 18.6402 2.1213C18.6399 2.12135 18.6397 2.12139 18.8145 3.106C18.9892 4.09061 18.9891 4.09063 18.989 4.09065C18.989 4.09065 18.989 4.09066 18.989 4.09065C18.9891 4.09063 18.9894 4.09058 18.9899 4.0905C18.9908 4.09034 18.9924 4.09006 18.9947 4.08966C18.9992 4.08886 19.0066 4.08759 19.0166 4.08588C19.0367 4.08244 19.0675 4.07724 19.1085 4.07049C19.1906 4.057 19.3135 4.03737 19.4731 4.01347C19.7923 3.96565 20.2574 3.90085 20.8347 3.83406C21.9906 3.70033 23.5888 3.55948 25.3599 3.53001C28.9652 3.47002 33.0455 3.87945 35.6571 5.53093L36.7261 3.84055ZM18.8145 3.106C18.6249 2.12413 18.6244 2.12422 18.6239 2.12432C18.6237 2.12436 18.6232 2.12447 18.6228 2.12455C18.6219 2.12472 18.6209 2.12491 18.6198 2.12512C18.6177 2.12555 18.615 2.12609 18.6118 2.12673C18.6054 2.128 18.5971 2.1297 18.5868 2.13185C18.5662 2.13614 18.5379 2.1422 18.5021 2.15024C18.4305 2.1663 18.3291 2.19022 18.2003 2.22349C17.9427 2.29003 17.5755 2.394 17.1182 2.54734C16.204 2.85393 14.9281 3.35851 13.4498 4.15692C10.4908 5.7549 6.72212 8.52955 3.42646 13.2399L5.06519 14.3865C8.15565 9.96938 11.6713 7.39043 14.4001 5.91668C15.7657 5.17922 16.9346 4.7184 17.7541 4.44356C18.1638 4.30618 18.4857 4.21543 18.7005 4.15992C18.808 4.13217 18.8886 4.11324 18.94 4.1017C18.9657 4.09594 18.9841 4.09202 18.9949 4.08977C19.0002 4.08865 19.0037 4.08794 19.0053 4.08763C19.006 4.08748 19.0063 4.08742 19.0061 4.08746C19.006 4.08748 19.0058 4.08753 19.0055 4.08759C19.0053 4.08763 19.0049 4.0877 19.0048 4.08771C19.0045 4.08779 19.004 4.08787 18.8145 3.106ZM3.42646 13.2399C0.976857 16.7411 0.224885 21.7265 0.0466551 25.6881C-0.0435939 27.6941 0.0116672 29.4895 0.0893146 30.7834C0.128178 31.431 0.172755 31.9548 0.20785 32.3185C0.225402 32.5004 0.240594 32.6424 0.251532 32.74C0.257002 32.7888 0.26141 32.8265 0.264519 32.8525C0.266074 32.8656 0.267304 32.8757 0.26818 32.8828C0.268618 32.8864 0.268967 32.8892 0.269225 32.8913C0.269354 32.8923 0.269459 32.8932 0.269541 32.8938C0.269582 32.8941 0.269626 32.8945 0.269647 32.8947C0.269685 32.895 0.269717 32.8952 1.26184 32.77C2.25397 32.6447 2.25399 32.6449 2.254 32.645C2.254 32.645 2.25401 32.645 2.254 32.645C2.25399 32.6449 2.25395 32.6446 2.25389 32.6441C2.25377 32.6432 2.25356 32.6414 2.25326 32.639C2.25266 32.6341 2.25171 32.6263 2.25043 32.6156C2.24787 32.5941 2.24401 32.5612 2.23909 32.5172C2.22923 32.4293 2.21512 32.2975 2.1986 32.1264C2.16557 31.784 2.12298 31.2845 2.08572 30.6636C2.01112 29.4204 1.95828 27.6973 2.04463 25.778C2.2196 21.8888 2.95962 17.3959 5.06519 14.3865L3.42646 13.2399Z" fill="black"/>
<path d="M19.1123 1C19.1123 0.447715 18.6646 0 18.1123 0C17.56 0 17.1123 0.447715 17.1123 1H19.1123ZM17.1123 1V3.10632H19.1123V1H17.1123Z" fill="black"/>
</svg>
