<svg width="67" height="60" viewBox="0 0 67 60" fill="none" xmlns="http://www.w3.org/2000/svg">
<path d="M11.5589 58.2117C11.8617 57.8312 13.9293 54.3117 17.1616 49.9784M26.0347 58.2117C26.0347 58.2117 32.7374 47.859 40.0347 43.5C52.0405 36.3284 65.0117 36.3284 65.0117 36.3284M1 46.5117C1.51717 46.5117 6.43611 46.5134 9.83502 47.1617C12.7652 47.7206 17.1616 49.9784 17.1616 49.9784M17.1616 49.9784C21.0404 45.4284 21.0404 44.7784 24.2727 41.9617M1 35.4617C1 35.4617 9.0501 35.7238 13.9293 37.195C18.1854 38.4784 24.2727 41.9617 24.2727 41.9617M24.2727 41.9617C24.2727 41.9617 28.2671 38.2784 30.9918 36.3284M10.0039 36.3284V29.6117M10.0039 29.6117C10.0039 29.6117 5.03467 26.2979 5.03467 21.6434C5.03467 16.9888 7.53467 15.1434 10.5347 15.1434C13.5347 15.1434 15.5347 16.7819 15.5347 21.6434C15.5347 26.5048 10.0039 29.6117 10.0039 29.6117ZM30.9918 21.9951C30.9918 21.9951 23.9345 17.4648 23.5347 11.6434C23.0783 4.99831 26.949 1 30.9918 1C35.0347 1 38.491 4.99831 38.0347 11.6434C37.6349 17.4648 30.9918 21.9951 30.9918 21.9951ZM30.9918 21.9951C30.9918 21.9951 30.9918 30.7309 30.9918 36.3284M65 25.4045C65 25.4045 50.1558 26.5901 42.5892 30.045C35.0227 33.5 30.9918 35.9892 30.9918 36.3284" stroke="black" stroke-width="2" stroke-linecap="round" stroke-linejoin="round"/>
</svg>
