<svg width="51" height="64" viewBox="0 0 51 64" fill="none" xmlns="http://www.w3.org/2000/svg">
<path d="M18.902 63.0005H24.45M29.9981 63.0005H24.45M24.45 63.0005V44.4867M24.45 22.9435V32.9578M24.45 42.972L29.9981 36.7447M24.45 42.972V32.9578M24.45 42.972V44.4867M24.45 32.9578L18.902 28.3293M24.45 44.4867C24.45 44.4867 20.8597 45.4161 18.902 44.4867C16.4996 43.3462 15.2033 39.7742 15.2033 39.7742C15.2033 39.7742 2.09009 37.7546 1.08107 28.3293C0.0720574 18.9041 8.81469 16.5479 8.81469 16.5479C8.81469 16.5479 7.13376 5.77635 15.2033 2.07352C23.2729 -1.6293 29.9981 5.43965 29.9981 5.43965C29.9981 5.43965 38.0682 2.74683 42.4391 7.79594C46.81 12.8451 45.129 17.8943 45.129 17.8943C45.129 17.8943 51.854 21.9336 49.5003 30.349C47.1466 38.7643 37.0592 36.7447 37.0592 36.7447C37.0592 36.7447 36.7227 42.467 32.3515 44.4867C27.9802 46.5065 24.45 44.4867 24.45 44.4867Z" stroke="black" stroke-width="2" stroke-linecap="round" stroke-linejoin="round"/>
</svg>
