<svg width="74" height="56" viewBox="0 0 74 56" fill="none" xmlns="http://www.w3.org/2000/svg">
<path d="M1.00049 31.7005C1.00049 31.7005 9.40658 29.1421 13.0614 23.2944C16.7162 17.4467 18.9091 14.1574 18.9091 14.1574C18.9091 14.1574 28.0462 1 43.7619 1C51.1261 1 56.9472 3.85011 59.1122 7.94416C61.5673 12.5871 57.6502 18.9086 57.6502 18.9086C57.6502 18.9086 58.7101 14.595 55.8228 11.9645C53.4388 9.79241 49.6262 8.55384 46.3203 10.868C39.0106 15.9849 43.0309 28.4112 51.437 33.1624C58.8195 37.3351 73.0005 35.7208 73.0005 35.7208" stroke="black" stroke-width="2" stroke-linecap="round" stroke-linejoin="round"/>
<path d="M28.7039 22.9282C28.7039 22.9282 24.3093 34.7992 38.2257 41.9218C52.1421 49.0444 64.5936 46.6702 64.5936 46.6702" stroke="black" stroke-width="2" stroke-linecap="round" stroke-linejoin="round"/>
<path d="M16.3719 31.7007C16.3719 31.7007 15.6408 39.0103 22.9505 46.6855C30.2602 54.3606 39.3972 54.3606 39.3972 54.3606" stroke="black" stroke-width="2" stroke-linecap="round" stroke-linejoin="round"/>
</svg>
